<svg width="272" height="246" viewBox="0 0 272 246" fill="none" xmlns="http://www.w3.org/2000/svg">
<path d="M246.427 14.7029C243.282 12.1086 239.725 10.233 235.895 8.90291C220.411 3.52737 200.456 7.06578 185.235 8.11008C162.032 9.70351 138.747 9.34145 115.551 10.4937C101.624 11.1864 87.0439 10.6258 73.2613 12.5893C57.4481 14.8412 40.9926 9.49595 26.4436 16.7309C5.25612 27.2687 6.11198 43.7163 6.00926 65.7439C5.87099 95.1448 7.32618 124.506 7.35252 153.914C7.36437 167.816 7.77129 187.439 9.82168 201.253C12.6662 220.407 29.8604 240.86 52.7203 240.216C95.1109 240.928 141.295 238.722 182.339 237.145C200.132 236.463 222.284 236.215 239.628 231.039C268.682 222.367 265.988 176.969 265.012 153.55C264.765 147.621 261.479 61.9938 257.536 38.6242C256.717 33.7715 256.284 27.9166 253.784 23.534" stroke="#45E688" stroke-width="11.14" stroke-miterlimit="1.5" stroke-linecap="round" stroke-linejoin="round"/>
<path d="M220.314 32.036C209.919 30.2503 196.543 32.0952 189.183 31.874C168.12 31.2419 146.927 33.0333 125.877 33.5548C107.537 34.0091 87.8405 33.0518 69.7135 35.334C54.4705 37.254 31.8239 33.6861 31.8266 52.6651C31.8305 75.9675 32.5334 99.2531 32.3899 122.554C32.2977 137.411 29.2813 153.319 31.5424 168.035C32.746 175.863 36.3841 182.791 44.6489 184.501C52.541 186.132 61.5635 185.732 69.4042 185.059C79.1242 184.225 89.0465 184.061 98.7796 183.689C123.392 182.749 213.014 179.39 225.927 177.078C238.555 173.955 240.75 154.418 240.278 144.939C238.81 115.463 238.359 82.9814 234.865 44.4558" stroke="#45E688" stroke-width="11.14" stroke-miterlimit="1.5" stroke-linecap="round" stroke-linejoin="round"/>
<path d="M80.7482 57.6344C70.4211 54.0037 62.8948 64.9341 61.6359 73.8943C60.4665 82.213 67.0484 90.5421 74.7996 93.0271C78.6897 94.2742 84.3102 95.1805 88.2727 93.782C105.541 87.6861 104.803 63.7523 87.8293 58.8008" stroke="#45E688" stroke-width="11.14" stroke-miterlimit="1.5" stroke-linecap="round" stroke-linejoin="round"/>
<path d="M44.563 180.961C46.936 172.944 51.981 164.775 57.1011 158.215C63.0613 150.579 69.2139 142.83 78.0305 138.351C112.013 121.089 145.607 149.088 160.505 178.211" stroke="#45E688" stroke-width="11.14" stroke-miterlimit="1.5" stroke-linecap="round" stroke-linejoin="round"/>
<path d="M121.772 137.543C120.908 127.537 129.274 117.103 134.329 109.141C141.306 98.152 151.452 86.1458 163.889 80.9717C191.232 69.5951 223.347 84.5937 237.496 108.971" stroke="#45E688" stroke-width="11.14" stroke-miterlimit="1.5" stroke-linecap="round" stroke-linejoin="round"/>
</svg>
