<svg width="276" height="318" viewBox="0 0 276 318" fill="none" xmlns="http://www.w3.org/2000/svg">
<path fill-rule="evenodd" clip-rule="evenodd" d="M175.876 91.2751C101.793 42.8441 23.8811 94.0035 10.8372 152.892C2.12709 192.22 13.3358 231.65 46.343 262.391C41.6729 282.732 40.2717 293.925 36.5355 310.175C53.4378 302.909 73.4136 290.686 85.4132 284.978C86.1393 284.633 139.02 308.482 187.143 265.231C239.102 218.534 233.157 128.72 175.876 91.2751V91.2751Z" stroke="#45E688" stroke-width="14.6594" stroke-miterlimit="1.5" stroke-linecap="round" stroke-linejoin="round"/>
<path fill-rule="evenodd" clip-rule="evenodd" d="M182.892 212.543C176.996 220.278 166.795 229.657 157.104 232.881C141.805 237.971 128.153 233.949 109.87 221.411C80.5195 201.285 49.5129 174.537 66.5335 140.836C68.6443 136.656 71.0123 132.59 74.1448 129.086C81.6028 134.884 94.7586 146.276 101.835 152.543C100.181 156.936 97.6689 160.716 100.106 168.527C101.801 173.962 106.903 177.679 111.006 181.391C121.789 191.149 139.461 205.954 151.337 189.839C161.846 197.58 171.947 205.436 182.892 212.543Z" stroke="#F0AF56" stroke-width="14.6594" stroke-miterlimit="1.5" stroke-linecap="round" stroke-linejoin="round"/>
<path d="M210.187 15.3701C203.769 30.6133 199.107 46.3837 193.395 61.8566" stroke="#F0AF56" stroke-width="8.93968" stroke-miterlimit="1.5" stroke-linecap="round" stroke-linejoin="round"/>
<path d="M255.269 5.31571C237.267 25.4553 221.184 47.869 206.448 70.4552" stroke="#F0AF56" stroke-width="8.93968" stroke-miterlimit="1.5" stroke-linecap="round" stroke-linejoin="round"/>
<path d="M270.944 49.7023C253.534 56.0635 231.97 72.5153 216.041 83.2127" stroke="#F0AF56" stroke-width="8.93968" stroke-miterlimit="1.5" stroke-linecap="round" stroke-linejoin="round"/>
</svg>
