<svg width="345" height="297" viewBox="0 0 345 297" fill="none" xmlns="http://www.w3.org/2000/svg">
<path fill-rule="evenodd" clip-rule="evenodd" d="M148.095 290.071C172.579 294.413 190.528 272.075 199.61 258.331C226.841 217.125 247.31 174.797 275.607 127.201C287.409 107.35 304.261 76.1317 293.624 50.6981C286.96 34.7681 249.756 27.8548 235.141 25.6981C204.031 21.1057 160.902 10.976 131.612 25.6528C120.8 31.0711 113.212 45.2947 105.633 54.2095C74.5596 90.7626 50.947 134.781 26.4747 175.832C12.6108 199.089 -3.56934 218.902 13.05 245.588C19.859 256.521 41.272 263.579 52.4403 267.387C83.7743 278.07 115.407 284.274 148.095 290.071Z" stroke="#45E688" stroke-width="12" stroke-miterlimit="1.5" stroke-linecap="round" stroke-linejoin="round"/>
<path d="M12.7812 209.468C12.8819 227.115 30.7325 227.335 43.1878 232.286C77.7744 246.035 110.865 253.235 147.729 258.228C153.831 259.054 159.746 259.88 164.423 256.933C174.01 250.892 180.791 239.685 186.147 229.951C211.327 184.185 242.387 141.744 266.013 95.0603C272.133 82.9656 278.815 70.75 283.417 57.9669C285.483 52.2289 285.495 44.8675 279.809 41.1577" stroke="#45E688" stroke-width="12" stroke-miterlimit="1.5" stroke-linecap="round" stroke-linejoin="round"/>
<path d="M178.717 19.208C178.155 22.4177 176.486 31.6591 178.803 34.5252C181.632 38.0258 188.221 37.7201 192.24 38.2759C201.612 39.572 210.686 42.2924 220.131 43.1401C223.718 43.4629 227.702 44.3814 231.181 43.0346C237.086 40.7483 241.172 33.1735 245.417 28.6249" stroke="#45E688" stroke-width="12" stroke-miterlimit="1.5" stroke-linecap="round" stroke-linejoin="round"/>
<path fill-rule="evenodd" clip-rule="evenodd" d="M147.385 180.515C130.651 180.475 94.0788 142.113 97.1863 116.632C99.3741 98.7013 115.479 87.5763 130.638 93.7271C138.79 97.0353 143.182 105.659 147.464 112.902C152.477 105.065 158.61 94.7666 167.777 91.687C184.309 86.1331 199.583 98.7667 201.253 118.047C203.387 142.692 163 180.553 147.385 180.515Z" stroke="#F0AF56" stroke-width="8" stroke-miterlimit="1.5" stroke-linecap="round" stroke-linejoin="round"/>
<path d="M185.182 92.4642C186.72 91.0239 188.272 89.5865 189.925 88.2793" stroke="#F0AF56" stroke-width="8" stroke-miterlimit="1.5" stroke-linecap="round" stroke-linejoin="round"/>
<path d="M138.173 99.1817C140.312 97.6932 142.306 96.038 144.359 94.439" stroke="#F0AF56" stroke-width="8" stroke-miterlimit="1.5" stroke-linecap="round" stroke-linejoin="round"/>
<path d="M127.784 92.7428C129.922 91.2552 131.917 89.6 133.969 88" stroke="#F0AF56" stroke-width="8" stroke-miterlimit="1.5" stroke-linecap="round" stroke-linejoin="round"/>
<path d="M197.882 105.233C200.02 103.744 202.014 102.09 204.067 100.49" stroke="#F0AF56" stroke-width="8" stroke-miterlimit="1.5" stroke-linecap="round" stroke-linejoin="round"/>
<path d="M200.973 124.263C203.112 122.775 205.106 121.121 207.159 119.521" stroke="#F0AF56" stroke-width="8" stroke-miterlimit="1.5" stroke-linecap="round" stroke-linejoin="round"/>
<path d="M192.379 144.37C194.772 143.339 197.057 142.116 199.387 140.958" stroke="#F0AF56" stroke-width="8" stroke-miterlimit="1.5" stroke-linecap="round" stroke-linejoin="round"/>
<path d="M175.51 164.035C177.906 162.716 191.71 155.734 194.027 154.29" stroke="#F0AF56" stroke-width="8" stroke-miterlimit="1.5" stroke-linecap="round" stroke-linejoin="round"/>
<path d="M299 25.5888C303.362 18.6066 307.906 11.7906 312.555 5" stroke="#F0AF56" stroke-width="9.84247" stroke-miterlimit="1.5" stroke-linecap="round" stroke-linejoin="round"/>
<path d="M310.203 40.0697C317.504 34.2638 325.66 29.7744 333.476 24.7456" stroke="#F0AF56" stroke-width="9.84247" stroke-miterlimit="1.5" stroke-linecap="round" stroke-linejoin="round"/>
<path d="M315.724 57.115C323.42 55.7347 331.482 55.1516 339.204 56.4163" stroke="#F0AF56" stroke-width="9.84247" stroke-miterlimit="1.5" stroke-linecap="round" stroke-linejoin="round"/>
</svg>
